<?xml version="1.0" encoding="iso-8859-1"?>
<!-- Generator: Adobe Illustrator 19.0.0, SVG Export Plug-In . SVG Version: 6.00 Build 0)  -->
<svg version="1.1" id="Layer_1" xmlns="http://www.w3.org/2000/svg" xmlns:xlink="http://www.w3.org/1999/xlink" x="0px" y="0px"
	 viewBox="0 0 512.009 512.009" style="enable-background:new 0 0 512.009 512.009;" xml:space="preserve">
<g>
	<g>
		<g>
			<path d="M490.671,0H21.338C9.54,0,0.004,9.557,0.004,21.333V128h512V21.333C512.004,9.557,502.468,0,490.671,0z M85.338,106.667
				c-11.776,0-21.333-9.557-21.333-21.333S73.562,64,85.338,64s21.333,9.557,21.333,21.333S97.114,106.667,85.338,106.667z
				 M149.338,106.667c-11.776,0-21.333-9.557-21.333-21.333S137.562,64,149.338,64s21.333,9.557,21.333,21.333
				S161.114,106.667,149.338,106.667z M213.338,106.667c-11.776,0-21.333-9.557-21.333-21.333S201.562,64,213.338,64
				s21.333,9.557,21.333,21.333S225.114,106.667,213.338,106.667z"/>
			<path d="M0.004,490.675c0,11.776,9.536,21.333,21.333,21.333h469.333c11.797,0,21.333-9.557,21.333-21.333v-320h-512V490.675z
				 M341.338,234.611c0-11.755,9.536-21.269,21.291-21.269h42.752c11.755,0,21.291,9.515,21.291,21.269v42.773
				c0,11.755-9.536,21.291-21.291,21.291h-42.752c-11.755,0-21.291-9.536-21.291-21.291V234.611z M341.338,362.611
				c0-11.755,9.536-21.269,21.291-21.269h42.752c11.755,0,21.291,9.515,21.291,21.269v42.773c0,11.755-9.536,21.291-21.291,21.291
				h-42.752c-11.755,0-21.291-9.536-21.291-21.291V362.611z M213.338,234.611c0-11.755,9.536-21.269,21.291-21.269h42.752
				c11.755,0,21.291,9.515,21.291,21.269v42.773c0,11.755-9.536,21.291-21.291,21.291h-42.752c-11.755,0-21.291-9.536-21.291-21.291
				V234.611z M213.338,362.611c0-11.755,9.536-21.269,21.291-21.269h42.752c11.755,0,21.291,9.515,21.291,21.269v42.773
				c0,11.755-9.536,21.291-21.291,21.291h-42.752c-11.755,0-21.291-9.536-21.291-21.291V362.611z M85.338,234.611
				c0-11.755,9.536-21.269,21.291-21.269h42.752c11.755,0,21.291,9.515,21.291,21.269v42.773c0,11.755-9.536,21.291-21.291,21.291
				h-42.752c-11.755,0-21.291-9.536-21.291-21.291V234.611z M85.338,362.611c0-11.755,9.536-21.269,21.291-21.269h42.752
				c11.755,0,21.291,9.515,21.291,21.269v42.773c0,11.755-9.536,21.291-21.291,21.291h-42.752c-11.755,0-21.291-9.536-21.291-21.291
				V362.611z"/>
		</g>
	</g>
</g>
<g>
</g>
<g>
</g>
<g>
</g>
<g>
</g>
<g>
</g>
<g>
</g>
<g>
</g>
<g>
</g>
<g>
</g>
<g>
</g>
<g>
</g>
<g>
</g>
<g>
</g>
<g>
</g>
<g>
</g>
</svg>
