<svg height="448pt" viewBox="0 0 448 448" width="448pt" xmlns="http://www.w3.org/2000/svg"><path d="m296 208c0 48.601562-39.398438 88-88 88s-88-39.398438-88-88 39.398438-88 88-88 88 39.398438 88 88zm0 0"/><path d="m224 0c-123.710938 0-224 100.289062-224 224s100.289062 224 224 224 224-100.289062 224-224c-.140625-123.652344-100.347656-223.859375-224-224zm117.65625 341.65625c-3.125 3.121094-8.1875 3.121094-11.3125 0l-54.769531-54.761719c-42.550781 36.472657-106.316407 32.792969-144.394531-8.328125-38.078126-41.121094-36.851563-104.980468 2.777343-144.609375 39.628907-39.628906 103.488281-40.855469 144.609375-2.777343 41.121094 38.078124 44.800782 101.84375 8.328125 144.394531l54.761719 54.769531c3.121094 3.125 3.121094 8.1875 0 11.3125zm0 0"/></svg>